<svg width="32" height="32" xmlns="http://www.w3.org/2000/svg">
 <title/>

 <g>
  <title>background</title>
  <rect fill="none" id="canvas_background" height="402" width="582" y="-1" x="-1"/>
 </g>
 <g>
  <title>Layer 1</title>
  <path id="svg_1" d="m28,28.5l-24,0a0.5,0.5 0 0 1 -0.5,-0.5l0,-24a0.5,0.5 0 0 1 0.5,-0.5l24,0a0.5,0.5 0 0 1 0.5,0.5l0,24a0.5,0.5 0 0 1 -0.5,0.5zm-23.5,-1l23,0l0,-23l-23,0l0,23z"/>
  <path stroke="null" id="svg_2" d="m22,16.673533l-12,0a0.5,0.673533 0 0 1 0,-1.347066l12,0a0.5,0.673533 0 0 1 0,1.347066z"/>
  <path stroke="null" id="svg_3" d="m15.978308,22.5a0.695224,0.5 0 0 1 -0.695224,-0.5l0,-12a0.695224,0.5 0 0 1 1.390449,0l0,12a0.695224,0.5 0 0 1 -0.695224,0.5z"/>
  <line stroke-linecap="undefined" stroke-linejoin="undefined" id="svg_4" y2="27.62013" x2="4.438373" y1="4.48772" x1="4.438373" stroke-width="1.5" stroke="#000" fill="none"/>
  <line stroke-linecap="undefined" stroke-linejoin="undefined" id="svg_5" y2="4.444337" x2="4.728621" y1="4.444337" x1="27.431478" stroke-width="1.5" stroke="#000" fill="none"/>
  <line stroke-linecap="undefined" stroke-linejoin="undefined" id="svg_6" y2="4.25854" x2="27.431478" y1="27.437442" x1="27.431478" stroke-width="1.5" stroke="#000" fill="none"/>
  <line stroke-linecap="undefined" stroke-linejoin="undefined" id="svg_7" y2="27.437442" x2="27.660331" y1="27.437442" x1="4.872205" stroke-width="1.5" stroke="#000" fill="none"/>
 </g>
</svg>