<svg width="32" height="32" xmlns="http://www.w3.org/2000/svg">
 <title/>

 <g>
  <title>background</title>
  <rect fill="none" id="canvas_background" height="402" width="582" y="-1" x="-1"/>
 </g>
 <g>
  <title>Layer 1</title>
  <path id="svg_1" d="m27.94,28.44l-24,0a0.5,0.5 0 0 1 -0.5,-0.5l0,-24a0.5,0.5 0 0 1 0.5,-0.5l24,0a0.5,0.5 0 0 1 0.5,0.5l0,24a0.51,0.51 0 0 1 -0.5,0.5zm-23.5,-1l23,0l0,-23l-23,0l0,23z"/>
  <path stroke="null" id="svg_2" d="m22,16.70692l-12,0a0.5,0.695228 0 0 1 0,-1.390456l12,0a0.5,0.695228 0 1 1 0,1.390456z"/>
  <line stroke-linecap="undefined" stroke-linejoin="undefined" id="svg_3" y2="27.701212" x2="4.438177" y1="4.400759" x1="4.438177" stroke-width="1.5" stroke="#000" fill="none"/>
  <line stroke-linecap="undefined" stroke-linejoin="undefined" id="svg_4" y2="4.357376" x2="4.820875" y1="4.357376" x1="27.388287" stroke-width="1.5" stroke="#000" fill="none"/>
  <line stroke-linecap="undefined" stroke-linejoin="undefined" id="svg_5" y2="4.27979" x2="27.388287" y1="27.437637" x1="27.388287" stroke-width="1.5" stroke="#000" fill="none"/>
  <line stroke-linecap="undefined" stroke-linejoin="undefined" id="svg_6" y2="27.437637" x2="26.913785" y1="27.437637" x1="4.785249" stroke-width="1.5" stroke="#000" fill="none"/>
 </g>
</svg>